<svg fill="none" height="536" viewBox="0 0 536 536" width="536" xmlns="http://www.w3.org/2000/svg"><circle cx="106.276" cy="269.276" fill="#92918f" r="35.2761"/><circle cx="198.724" cy="269.276" fill="#cdcdcc" r="35.2761"/><circle cx="106.276" cy="361.724" fill="#eaeae9" r="35.2761"/><circle cx="198.724" cy="361.724" fill="#1b2020" r="35.2761"/><rect fill="#92918f" height="187" rx="16" width="187" x="282" y="129"/><path d="m362.558 255.534-5.473-19.207h-22.924l-5.473 19.207h-11.772l21.066-72.076h15.798l21.066 72.076zm-16.522-60.408h-.826l-8.881 31.598h18.587zm81.536 60.408c-3.236 0-5.68-.826-7.332-2.479-1.583-1.652-2.547-3.82-2.891-6.505h-.516c-1.033 3.235-2.926 5.748-5.68 7.538-2.685 1.79-6.127 2.685-10.326 2.685-5.438 0-9.775-1.411-13.011-4.234-3.235-2.891-4.853-6.85-4.853-11.875 0-5.163 1.893-9.087 5.679-11.772 3.855-2.753 9.741-4.13 17.658-4.13h10.223v-4.131c0-7.228-3.821-10.842-11.462-10.842-3.442 0-6.23.688-8.364 2.065-2.134 1.308-3.924 3.064-5.37 5.267l-6.712-5.473c1.515-2.892 4.062-5.37 7.641-7.435 3.58-2.134 8.193-3.201 13.837-3.201 6.747 0 12.048 1.618 15.903 4.853 3.855 3.236 5.782 7.917 5.782 14.044v26.744h6.712v8.881zm-23.544-7.022c3.649 0 6.643-.826 8.984-2.478s3.511-3.787 3.511-6.403v-7.744h-10.016c-8.124 0-12.185 2.444-12.185 7.331v2.066c0 2.409.86 4.233 2.581 5.473 1.721 1.17 4.096 1.755 7.125 1.755z" fill="#f6f6f5"/><rect fill="#1b2020" height="59" rx="16" width="173" x="66" y="129"/><g stroke-linecap="round" stroke-width="7"><path d="m116.5 158.5h73" stroke="#f6f6f5"/><path d="m284.5 389.5h140" stroke="#1b2020"/><path d="m284.5 362.5h177" stroke="#1b2020"/></g></svg>