<svg width="536" height="536" viewBox="0 0 536 536" fill="none" xmlns="http://www.w3.org/2000/svg">
<path d="M406.274 175.536L408.795 173.107L407.762 172.036H406.274V175.536ZM427.408 197.476L424.887 199.904L424.887 199.904L427.408 197.476ZM436.057 175.536V172.036H432.557V175.536H436.057ZM198.5 100C198.5 93.0964 204.096 87.5 211 87.5V80.5C200.23 80.5 191.5 89.2304 191.5 100H198.5ZM198.5 159.536V100H191.5V159.536H198.5ZM211 172.036C204.096 172.036 198.5 166.439 198.5 159.536H191.5C191.5 170.305 200.23 179.036 211 179.036V172.036ZM406.274 172.036H211V179.036H406.274V172.036ZM429.929 195.048L408.795 173.107L403.753 177.964L424.887 199.904L429.929 195.048ZM432.557 193.609C432.557 194.473 432.086 195.063 431.486 195.331C430.907 195.59 430.367 195.502 429.929 195.048L424.887 199.904C427.602 202.722 431.387 203.043 434.343 201.721C437.28 200.408 439.557 197.429 439.557 193.609H432.557ZM432.557 175.536V193.609H439.557V175.536H432.557ZM463.771 172.036H436.057V179.036H463.771V172.036ZM476.271 159.536C476.271 166.439 470.674 172.036 463.771 172.036V179.036C474.54 179.036 483.271 170.305 483.271 159.536H476.271ZM476.271 100V159.536H483.271V100H476.271ZM463.771 87.5C470.674 87.5 476.271 93.0965 476.271 100H483.271C483.271 89.2304 474.54 80.5 463.771 80.5V87.5ZM211 87.5H463.771V80.5H211V87.5Z" fill="#FEFEFE"/>
<path d="M129.497 324.557L126.976 322.129L128.008 321.057H129.497V324.557ZM108.362 346.503L110.883 348.931L110.883 348.931L108.362 346.503ZM99.7137 324.557V321.057H103.214V324.557H99.7137ZM337.271 249C337.271 242.096 331.674 236.5 324.771 236.5V229.5C335.54 229.5 344.271 238.23 344.271 249H337.271ZM337.271 308.557V249H344.271V308.557H337.271ZM324.771 321.057C331.674 321.057 337.271 315.461 337.271 308.557H344.271C344.271 319.327 335.54 328.057 324.771 328.057V321.057ZM129.497 321.057H324.771V328.057H129.497V321.057ZM105.841 344.075L126.976 322.129L132.018 326.985L110.883 348.931L105.841 344.075ZM103.214 342.636C103.214 343.499 103.685 344.09 104.285 344.358C104.864 344.617 105.404 344.53 105.841 344.075L110.883 348.931C108.169 351.75 104.384 352.07 101.427 350.748C98.4903 349.435 96.2137 346.455 96.2137 342.636H103.214ZM103.214 324.557V342.636H96.2137V324.557H103.214ZM72 321.057H99.7137V328.057H72V321.057ZM59.5 308.557C59.5 315.461 65.0964 321.057 72 321.057V328.057C61.2305 328.057 52.5 319.327 52.5 308.557H59.5ZM59.5 249V308.557H52.5V249H59.5ZM72 236.5C65.0964 236.5 59.5 242.096 59.5 249H52.5C52.5 238.23 61.2305 229.5 72 229.5V236.5ZM324.771 236.5H72V229.5H324.771V236.5Z" fill="#FEFEFE"/>
<circle r="48.5326" transform="matrix(-1 0 0 1 105.033 422.033)" stroke="#FEFEFE" stroke-width="7"/>
<path d="M76.4981 457.18V451.942C76.4981 448.102 78.0234 444.42 80.7383 441.705C83.4532 438.99 87.1355 437.465 90.9749 437.465H119.929C123.768 437.465 127.45 438.99 130.165 441.705C132.88 444.42 134.405 448.102 134.405 451.942V457.18" stroke="#FEFEFE" stroke-width="7" stroke-linecap="round" stroke-linejoin="round"/>
<path d="M105.452 422.988C97.4566 422.988 90.9751 416.507 90.9751 408.511C90.9751 400.516 97.4566 394.035 105.452 394.035C113.447 394.035 119.929 400.516 119.929 408.511C119.929 416.507 113.447 422.988 105.452 422.988Z" stroke="#FEFEFE" stroke-width="7" stroke-linecap="round" stroke-linejoin="round"/>
<circle r="48.5326" transform="matrix(-1 0 0 1 430.033 276.033)" stroke="#FEFEFE" stroke-width="7"/>
<path d="M401.498 311.18V305.942C401.498 302.102 403.023 298.42 405.738 295.705C408.453 292.99 412.135 291.465 415.975 291.465H444.928C448.768 291.465 452.45 292.99 455.165 295.705C457.88 298.42 459.405 302.102 459.405 305.942V311.18" stroke="#FEFEFE" stroke-width="7" stroke-linecap="round" stroke-linejoin="round"/>
<path d="M430.452 276.989C422.456 276.989 415.975 270.507 415.975 262.512C415.975 254.516 422.456 248.035 430.452 248.035C438.447 248.035 444.928 254.516 444.928 262.512C444.928 270.507 438.447 276.989 430.452 276.989Z" stroke="#FEFEFE" stroke-width="7" stroke-linecap="round" stroke-linejoin="round"/>
<line x1="3.5" y1="-3.5" x2="130.5" y2="-3.5" transform="matrix(-1 0 0 1 231 285)" stroke="#FEFEFE" stroke-width="7" stroke-linecap="round"/>
<line x1="3.5" y1="-3.5" x2="166.5" y2="-3.5" transform="matrix(-1 0 0 1 401 136)" stroke="#FEFEFE" stroke-width="7" stroke-linecap="round"/>
</svg>
