<svg width="536" height="536" fill="none" xmlns="http://www.w3.org/2000/svg"><path d="M385.056 178.881l2.432-2.517-1.018-.983h-1.414v3.5zm17.745 17.148l-2.432 2.516 2.432-2.516zm7.382-17.148v-3.5h-3.5v3.5h3.5zm-199.878-58.382c0-5.522 4.476-9.999 9.999-9.999v-7c-9.389 0-16.999 7.611-16.999 16.999h7zm0 44.883v-44.883h-7v44.883h7zm9.999 9.999c-5.523 0-9.999-4.476-9.999-9.999h-7c0 9.389 7.61 16.999 16.999 16.999v-7zm164.752 0H220.304v7h164.752v-7zm20.177 18.131l-17.745-17.148-4.864 5.034 17.745 17.147 4.864-5.033zm1.45-.51a.69.69 0 0 1-.118.424.835.835 0 0 1-.365.276.917.917 0 0 1-.5.062.867.867 0 0 1-.467-.252l-4.864 5.033c4.878 4.714 13.314 1.491 13.314-5.543h-7zm0-14.121v14.121h7v-14.121h-7zm26.882-3.5h-23.382v7h23.382v-7zm9.999-9.999c0 5.523-4.476 9.999-9.999 9.999v7c9.389 0 16.999-7.61 16.999-16.999h-7zm0-44.883v44.883h7v-44.883h-7zm-9.999-9.999c5.523 0 9.999 4.477 9.999 9.999h7c0-9.388-7.61-16.999-16.999-16.999v7zm-213.261 0h213.261v-7H220.304v7zM151.54 304.592l-2.432-2.517 1.017-.983h1.415v3.5zm-17.746 17.147l2.432 2.517-2.432-2.517zm-7.382-17.147v-3.5h3.5v3.5h-3.5zm199.879-58.382c0-5.523-4.477-9.999-10-9.999v-7c9.389 0 17 7.61 17 16.999h-7zm0 44.883V246.21h7v44.883h-7zm-10 9.999c5.523 0 10-4.477 10-9.999h7c0 9.388-7.611 16.999-17 16.999v-7zm-164.751 0h164.751v7H151.54v-7zm-20.178 18.13l17.746-17.147 4.864 5.034-17.746 17.147-4.864-5.034zm-1.45-.51c0 .215.058.339.118.424a.826.826 0 0 0 .366.277c.171.07.347.087.499.062a.866.866 0 0 0 .467-.253l4.864 5.034c-4.877 4.713-13.314 1.491-13.314-5.544h7zm0-14.12v14.12h-7v-14.12h7zm-26.882-3.5h23.382v7H103.03v-7zm-10-9.999c0 5.522 4.478 9.999 10 9.999v7c-9.388 0-17-7.611-17-16.999h7zm0-44.883v44.883h-7V246.21h7zm10-9.999c-5.522 0-10 4.476-10 9.999h-7c0-9.389 7.612-16.999 17-16.999v7zm213.261 0H103.03v-7h213.261v7z" fill="#F6F6F5"/><circle r="40.4" transform="matrix(-1 0 0 1 130.9 385.447)" stroke="#F6F6F5" stroke-width="7"/><path d="M106.826 415.101v-4.42a12.213 12.213 0 0 1 12.214-12.214h24.428c3.239 0 6.346 1.287 8.636 3.578a12.211 12.211 0 0 1 3.578 8.636v4.42" stroke="#F6F6F5" stroke-width="7" stroke-linecap="round" stroke-linejoin="round"/><path d="M106.405 414.709v-4.42a12.215 12.215 0 0 1 12.214-12.214h24.428a12.217 12.217 0 0 1 12.214 12.214v4.42" fill="#F6F6F5"/><path d="M106.405 414.709v-4.42a12.215 12.215 0 0 1 12.214-12.214h24.428a12.217 12.217 0 0 1 12.214 12.214v4.42l-2.453 4.458-10.968 4.219-10.546 1.687-10.124-1.687-7.593-2.953-7.172-5.724z" fill="#F6F6F5"/><path d="M106.405 414.709v-4.42a12.215 12.215 0 0 1 12.214-12.214h24.428a12.217 12.217 0 0 1 12.214 12.214v4.42" stroke="#F6F6F5" stroke-width="7" stroke-linecap="round" stroke-linejoin="round"/><path d="M106.405 414.709v-4.42a12.215 12.215 0 0 1 12.214-12.214h24.428a12.217 12.217 0 0 1 12.214 12.214v4.42l-2.453 4.458-10.968 4.219-10.546 1.687-10.124-1.687-7.593-2.953-7.172-5.724z" stroke="#F6F6F5" stroke-width="7" stroke-linecap="round" stroke-linejoin="round"/><path d="M131.254 386.253c-6.746 0-12.214-5.468-12.214-12.214 0-6.745 5.468-12.214 12.214-12.214 6.745 0 12.214 5.469 12.214 12.214 0 6.746-5.469 12.214-12.214 12.214z" fill="#F6F6F5" stroke="#F6F6F5" stroke-width="7" stroke-linecap="round" stroke-linejoin="round"/><path d="M381.45 292.373v-4.42a12.214 12.214 0 0 1 12.214-12.214h24.428a12.214 12.214 0 0 1 12.214 12.214v4.42" fill="#F6F6F5"/><path d="M381.45 292.373v-4.42a12.214 12.214 0 0 1 12.214-12.214h24.428a12.214 12.214 0 0 1 12.214 12.214v4.42l-3.578 3.193-9.843 5.484-10.546 1.687-10.125-1.687-7.593-2.953-7.171-5.724z" fill="#F6F6F5"/><path d="M381.45 292.373v-4.42a12.214 12.214 0 0 1 12.214-12.214h24.428a12.214 12.214 0 0 1 12.214 12.214v4.42" stroke="#F6F6F5" stroke-width="7" stroke-linecap="round" stroke-linejoin="round"/><path d="M381.45 292.373v-4.42a12.214 12.214 0 0 1 12.214-12.214h24.428a12.214 12.214 0 0 1 12.214 12.214v4.42l-3.578 3.193-9.843 5.484-10.546 1.687-10.125-1.687-7.593-2.953-7.171-5.724z" stroke="#F6F6F5" stroke-width="7" stroke-linecap="round" stroke-linejoin="round"/><circle r="40.4" transform="matrix(-1 0 0 1 405.1 262.267)" stroke="#F6F6F5" stroke-width="7"/><path d="M381.026 291.921v-4.42c0-3.239 1.287-6.346 3.578-8.636a12.211 12.211 0 0 1 8.636-3.578h24.428a12.213 12.213 0 0 1 12.214 12.214v4.42" stroke="#F6F6F5" stroke-width="7" stroke-linecap="round" stroke-linejoin="round"/><path d="M405.454 263.074c-6.745 0-12.214-5.469-12.214-12.214 0-6.746 5.469-12.214 12.214-12.214 6.746 0 12.214 5.468 12.214 12.214 0 6.745-5.468 12.214-12.214 12.214z" fill="#F6F6F5" stroke="#F6F6F5" stroke-width="7" stroke-linecap="round" stroke-linejoin="round"/><path transform="matrix(-1 0 0 1 237.178 272.364)" stroke="#F6F6F5" stroke-width="7" stroke-linecap="round" d="M3.5 -3.5L109.555 -3.5"/><path transform="matrix(-1 0 0 1 380.606 147.497)" stroke="#F6F6F5" stroke-width="7" stroke-linecap="round" d="M3.5 -3.5L139.928 -3.5"/></svg>