<svg width="536" height="536" viewBox="0 0 536 536" fill="none" xmlns="http://www.w3.org/2000/svg">
<path d="M406.274 166.198L408.706 163.681L407.689 162.698H406.274V166.198ZM427.307 186.522L429.739 184.005L429.739 184.005L427.307 186.522ZM436.057 166.198V162.698H432.557V166.198H436.057ZM198.5 97C198.5 90.0964 204.096 84.5 211 84.5V77.5C200.23 77.5 191.5 86.2305 191.5 97H198.5ZM198.5 150.198V97H191.5V150.198H198.5ZM211 162.698C204.096 162.698 198.5 157.102 198.5 150.198H191.5C191.5 160.968 200.23 169.698 211 169.698V162.698ZM406.274 162.698H211V169.698H406.274V162.698ZM429.739 184.005L408.706 163.681L403.842 168.715L424.875 189.039L429.739 184.005ZM432.557 182.935C432.557 184.204 430.895 185.122 429.739 184.005L424.875 189.039C430.264 194.247 439.557 190.673 439.557 182.935H432.557ZM432.557 166.198V182.935H439.557V166.198H432.557ZM463.771 162.698H436.057V169.698H463.771V162.698ZM476.271 150.198C476.271 157.102 470.674 162.698 463.771 162.698V169.698C474.54 169.698 483.271 160.968 483.271 150.198H476.271ZM476.271 97V150.198H483.271V97H476.271ZM463.771 84.5C470.674 84.5 476.271 90.0965 476.271 97H483.271C483.271 86.2304 474.54 77.5 463.771 77.5V84.5ZM211 84.5H463.771V77.5H211V84.5Z" fill="#F6F6F5"/>
<path d="M129.497 315.198L127.065 312.681L128.082 311.698H129.497V315.198ZM108.463 335.522L106.031 333.005L106.031 333.005L108.463 335.522ZM99.7137 315.198V311.698H103.214V315.198H99.7137ZM337.271 246C337.271 239.096 331.674 233.5 324.771 233.5V226.5C335.54 226.5 344.271 235.23 344.271 246H337.271ZM337.271 299.198V246H344.271V299.198H337.271ZM324.771 311.698C331.674 311.698 337.271 306.102 337.271 299.198H344.271C344.271 309.968 335.54 318.698 324.771 318.698V311.698ZM129.497 311.698H324.771V318.698H129.497V311.698ZM106.031 333.005L127.065 312.681L131.929 317.715L110.895 338.039L106.031 333.005ZM103.214 331.935C103.214 333.205 104.875 334.122 106.031 333.005L110.895 338.039C105.506 343.247 96.2137 339.673 96.2137 331.935H103.214ZM103.214 315.198V331.935H96.2137V315.198H103.214ZM72 311.698H99.7137V318.698H72V311.698ZM59.5 299.198C59.5 306.102 65.0964 311.698 72 311.698V318.698C61.2305 318.698 52.5 309.968 52.5 299.198H59.5ZM59.5 246V299.198H52.5V246H59.5ZM72 233.5C65.0964 233.5 59.5 239.096 59.5 246H52.5C52.5 235.23 61.2305 226.5 72 226.5V233.5ZM324.771 233.5H72V226.5H324.771V233.5Z" fill="#F6F6F5"/>
<circle r="48.5326" transform="matrix(-1 0 0 1 105.033 411.033)" stroke="#F6F6F5" stroke-width="7"/>
<path d="M76.498 446.18V440.942C76.498 437.102 78.0232 433.42 80.7382 430.705C83.4531 427.99 87.1353 426.465 90.9748 426.465H119.928C123.768 426.465 127.45 427.99 130.165 430.705C132.88 433.42 134.405 437.102 134.405 440.942V446.18" stroke="#F6F6F5" stroke-width="7" stroke-linecap="round" stroke-linejoin="round"/>
<path d="M76 445.715V440.477C76 436.637 77.5252 432.955 80.2401 430.24C82.9551 427.525 86.6373 426 90.4768 426H119.43C123.27 426 126.952 427.525 129.667 430.24C132.382 432.955 133.907 436.637 133.907 440.477V445.715" fill="#F6F6F5"/>
<path d="M76 445.715V440.477C76 436.637 77.5252 432.955 80.2401 430.24C82.9551 427.525 86.6373 426 90.4768 426H119.43C123.27 426 126.952 427.525 129.667 430.24C132.382 432.955 133.907 436.637 133.907 440.477V445.715L131 451L118 456L105.5 458L93.5 456L84.5 452.5L76 445.715Z" fill="#F6F6F5"/>
<path d="M76 445.715V440.477C76 436.637 77.5252 432.955 80.2401 430.24C82.9551 427.525 86.6373 426 90.4768 426H119.43C123.27 426 126.952 427.525 129.667 430.24C132.382 432.955 133.907 436.637 133.907 440.477V445.715" stroke="#F6F6F5" stroke-width="7" stroke-linecap="round" stroke-linejoin="round"/>
<path d="M76 445.715V440.477C76 436.637 77.5252 432.955 80.2401 430.24C82.9551 427.525 86.6373 426 90.4768 426H119.43C123.27 426 126.952 427.525 129.667 430.24C132.382 432.955 133.907 436.637 133.907 440.477V445.715L131 451L118 456L105.5 458L93.5 456L84.5 452.5L76 445.715Z" stroke="#F6F6F5" stroke-width="7" stroke-linecap="round" stroke-linejoin="round"/>
<path d="M105.452 411.988C97.4566 411.988 90.9751 405.507 90.9751 397.511C90.9751 389.516 97.4566 383.035 105.452 383.035C113.447 383.035 119.929 389.516 119.929 397.511C119.929 405.507 113.447 411.988 105.452 411.988Z" fill="#F6F6F5" stroke="#F6F6F5" stroke-width="7" stroke-linecap="round" stroke-linejoin="round"/>
<path d="M402 300.715V295.477C402 291.637 403.525 287.955 406.24 285.24C408.955 282.525 412.637 281 416.477 281H445.43C449.27 281 452.952 282.525 455.667 285.24C458.382 287.955 459.907 291.637 459.907 295.477V300.715" fill="#F6F6F5"/>
<path d="M402 300.715V295.477C402 291.637 403.525 287.955 406.24 285.24C408.955 282.525 412.637 281 416.477 281H445.43C449.27 281 452.952 282.525 455.667 285.24C458.382 287.955 459.907 291.637 459.907 295.477V300.715L455.667 304.5L444 311L431.5 313L419.5 311L410.5 307.5L402 300.715Z" fill="#F6F6F5"/>
<path d="M402 300.715V295.477C402 291.637 403.525 287.955 406.24 285.24C408.955 282.525 412.637 281 416.477 281H445.43C449.27 281 452.952 282.525 455.667 285.24C458.382 287.955 459.907 291.637 459.907 295.477V300.715" stroke="#F6F6F5" stroke-width="7" stroke-linecap="round" stroke-linejoin="round"/>
<path d="M402 300.715V295.477C402 291.637 403.525 287.955 406.24 285.24C408.955 282.525 412.637 281 416.477 281H445.43C449.27 281 452.952 282.525 455.667 285.24C458.382 287.955 459.907 291.637 459.907 295.477V300.715L455.667 304.5L444 311L431.5 313L419.5 311L410.5 307.5L402 300.715Z" stroke="#F6F6F5" stroke-width="7" stroke-linecap="round" stroke-linejoin="round"/>
<circle r="48.5326" transform="matrix(-1 0 0 1 430.033 265.033)" stroke="#F6F6F5" stroke-width="7"/>
<path d="M401.498 300.18V294.942C401.498 291.102 403.023 287.42 405.738 284.705C408.453 281.99 412.135 280.465 415.975 280.465H444.928C448.768 280.465 452.45 281.99 455.165 284.705C457.88 287.42 459.405 291.102 459.405 294.942V300.18" stroke="#F6F6F5" stroke-width="7" stroke-linecap="round" stroke-linejoin="round"/>
<path d="M430.452 265.989C422.456 265.989 415.975 259.507 415.975 251.512C415.975 243.516 422.456 237.035 430.452 237.035C438.447 237.035 444.928 243.516 444.928 251.512C444.928 259.507 438.447 265.989 430.452 265.989Z" fill="#F6F6F5" stroke="#F6F6F5" stroke-width="7" stroke-linecap="round" stroke-linejoin="round"/>
<line x1="3.5" y1="-3.5" x2="130.5" y2="-3.5" transform="matrix(-1 0 0 1 231 277)" stroke="#F6F6F5" stroke-width="7" stroke-linecap="round"/>
<line x1="3.5" y1="-3.5" x2="166.5" y2="-3.5" transform="matrix(-1 0 0 1 401 129)" stroke="#F6F6F5" stroke-width="7" stroke-linecap="round"/>
</svg>
