<svg width="536" height="536" fill="none" xmlns="http://www.w3.org/2000/svg"><path d="M406.274 166.198l2.432-2.517-1.017-.983h-1.415v3.5zm21.033 20.324l2.432-2.517-2.432 2.517zm8.75-20.324v-3.5h-3.5v3.5h3.5zM198.5 97c0-6.904 5.596-12.5 12.5-12.5v-7c-10.77 0-19.5 8.73-19.5 19.5h7zm0 53.198V97h-7v53.198h7zm12.5 12.5c-6.904 0-12.5-5.596-12.5-12.5h-7c0 10.77 8.73 19.5 19.5 19.5v-7zm195.274 0H211v7h195.274v-7zm23.465 21.307l-21.033-20.324-4.864 5.034 21.033 20.324 4.864-5.034zm2.818-1.07c0 1.269-1.662 2.187-2.818 1.07l-4.864 5.034c5.389 5.208 14.682 1.634 14.682-6.104h-7zm0-16.737v16.737h7v-16.737h-7zm31.214-3.5h-27.714v7h27.714v-7zm12.5-12.5c0 6.904-5.597 12.5-12.5 12.5v7c10.769 0 19.5-8.73 19.5-19.5h-7zm0-53.198v53.198h7V97h-7zm-12.5-12.5c6.903 0 12.5 5.597 12.5 12.5h7c0-10.77-8.731-19.5-19.5-19.5v7zM211 84.5h252.771v-7H211v7zm-81.504 230.698l-2.432-2.517 1.018-.983h1.414v3.5zm-21.033 20.324l-2.432-2.517 2.432 2.517zm-8.75-20.324v-3.5h3.5v3.5h-3.5zM337.271 246c0-6.904-5.597-12.5-12.5-12.5v-7c10.769 0 19.5 8.73 19.5 19.5h-7zm0 53.198V246h7v53.198h-7zm-12.501 12.5c6.904 0 12.501-5.596 12.501-12.5h7c0 10.77-8.731 19.5-19.501 19.5v-7zm-195.274 0H324.77v7H129.496v-7zm-23.465 21.307l21.033-20.324 4.864 5.034-21.033 20.324-4.864-5.034zm-2.818-1.07c0 1.27 1.662 2.187 2.818 1.07l4.864 5.034c-5.389 5.208-14.682 1.634-14.682-6.104h7zm0-16.737v16.737h-7v-16.737h7zM72 311.698h27.713v7H72v-7zm-12.5-12.5c0 6.904 5.596 12.5 12.5 12.5v7c-10.77 0-19.5-8.73-19.5-19.5h7zm0-53.198v53.198h-7V246h7zM72 233.5c-6.904 0-12.5 5.596-12.5 12.5h-7c0-10.77 8.73-19.5 19.5-19.5v7zm252.771 0H72v-7H324.77v7z" fill="#1B2020"/><circle r="48.533" transform="matrix(-1 0 0 1 105.033 411.033)" stroke="#1B2020" stroke-width="7"/><path d="M76.499 446.18v-5.238a14.477 14.477 0 0 1 14.476-14.477h28.954a14.478 14.478 0 0 1 14.477 14.477v5.238" stroke="#1B2020" stroke-width="7" stroke-linecap="round" stroke-linejoin="round"/><path d="M76 445.715v-5.238A14.477 14.477 0 0 1 90.478 426h28.954a14.478 14.478 0 0 1 14.477 14.477v5.238" fill="#1B2020"/><path d="M76 445.715v-5.238A14.477 14.477 0 0 1 90.478 426h28.954a14.478 14.478 0 0 1 14.477 14.477v5.238L131 451l-13 5-12.5 2-12-2-9-3.5-8.5-6.785z" fill="#1B2020"/><path d="M76 445.715v-5.238A14.477 14.477 0 0 1 90.478 426h28.954a14.478 14.478 0 0 1 14.477 14.477v5.238" stroke="#1B2020" stroke-width="7" stroke-linecap="round" stroke-linejoin="round"/><path d="M76 445.715v-5.238A14.477 14.477 0 0 1 90.478 426h28.954a14.478 14.478 0 0 1 14.477 14.477v5.238L131 451l-13 5-12.5 2-12-2-9-3.5-8.5-6.785z" stroke="#1B2020" stroke-width="7" stroke-linecap="round" stroke-linejoin="round"/><path d="M105.452 411.988c-7.995 0-14.476-6.481-14.476-14.477 0-7.995 6.481-14.476 14.476-14.476 7.996 0 14.477 6.481 14.477 14.476 0 7.996-6.481 14.477-14.477 14.477z" fill="#1B2020" stroke="#1B2020" stroke-width="7" stroke-linecap="round" stroke-linejoin="round"/><path d="M402 300.715v-5.238A14.476 14.476 0 0 1 416.477 281h28.953a14.476 14.476 0 0 1 14.477 14.477v5.238" fill="#1B2020"/><path d="M402 300.715v-5.238A14.476 14.476 0 0 1 416.477 281h28.953a14.476 14.476 0 0 1 14.477 14.477v5.238l-4.24 3.785L444 311l-12.5 2-12-2-9-3.5-8.5-6.785z" fill="#1B2020"/><path d="M402 300.715v-5.238A14.476 14.476 0 0 1 416.477 281h28.953a14.476 14.476 0 0 1 14.477 14.477v5.238" stroke="#1B2020" stroke-width="7" stroke-linecap="round" stroke-linejoin="round"/><path d="M402 300.715v-5.238A14.476 14.476 0 0 1 416.477 281h28.953a14.476 14.476 0 0 1 14.477 14.477v5.238l-4.24 3.785L444 311l-12.5 2-12-2-9-3.5-8.5-6.785z" stroke="#1B2020" stroke-width="7" stroke-linecap="round" stroke-linejoin="round"/><circle r="48.533" transform="matrix(-1 0 0 1 430.033 265.033)" stroke="#1B2020" stroke-width="7"/><path d="M401.498 300.18v-5.238a14.476 14.476 0 0 1 14.477-14.477h28.953a14.476 14.476 0 0 1 14.477 14.477v5.238" stroke="#1B2020" stroke-width="7" stroke-linecap="round" stroke-linejoin="round"/><path d="M430.452 265.988c-7.995 0-14.477-6.481-14.477-14.477 0-7.995 6.482-14.476 14.477-14.476s14.477 6.481 14.477 14.476c0 7.996-6.482 14.477-14.477 14.477z" fill="#1B2020" stroke="#1B2020" stroke-width="7" stroke-linecap="round" stroke-linejoin="round"/><path transform="matrix(-1 0 0 1 231 277)" stroke="#1B2020" stroke-width="7" stroke-linecap="round" d="M3.5 -3.5L130.5 -3.5"/><path transform="matrix(-1 0 0 1 401 129)" stroke="#1B2020" stroke-width="7" stroke-linecap="round" d="M3.5 -3.5L166.5 -3.5"/></svg>