<svg width="32" height="24" viewBox="0 0 32 24" fill="none" xmlns="http://www.w3.org/2000/svg">
<g clip-path="url(#clip0_9_2)">
<path d="M7.05884 15.5294H28.2353" stroke="#1B2020" stroke-width="2.82353" stroke-linecap="round" stroke-linejoin="round"/>
<path d="M28.2353 21.1765H7.05884" stroke="#1B2020" stroke-width="2.82353" stroke-linecap="round" stroke-linejoin="round"/>
<path d="M19.7648 9.88232H28.2354" stroke="#1B2020" stroke-width="2.82353" stroke-linecap="round" stroke-linejoin="round"/>
<path d="M28.2354 4.23529H19.7648" stroke="#1B2020" stroke-width="2.82353" stroke-linecap="round" stroke-linejoin="round"/>
<path d="M11.2941 7.05882H12.7058C12.9851 7.05882 13.258 7.14162 13.4902 7.29675C13.7223 7.45187 13.9033 7.67236 14.0101 7.93033C14.117 8.18829 14.1449 8.47215 14.0905 8.74601C14.036 9.01986 13.9015 9.27142 13.7041 9.46885C13.5067 9.66629 13.2551 9.80075 12.9813 9.85522C12.7074 9.9097 12.4235 9.88174 12.1656 9.77489C11.9076 9.66803 11.6871 9.48709 11.532 9.25492C11.3769 9.02276 11.2941 8.74981 11.2941 8.47059V4.94117C11.2941 4.19233 11.5915 3.47415 12.1211 2.94464C12.6506 2.41512 13.3688 2.11765 14.1176 2.11765" stroke="#1B2020" stroke-width="2.82353" stroke-linecap="round" stroke-linejoin="round"/>
<path d="M2.82361 7.05882H4.23537C4.51459 7.05882 4.78754 7.14162 5.01971 7.29675C5.25187 7.45187 5.43282 7.67236 5.53967 7.93033C5.64653 8.18829 5.67448 8.47215 5.62001 8.74601C5.56554 9.01986 5.43108 9.27142 5.23364 9.46885C5.0362 9.66629 4.78465 9.80075 4.51079 9.85522C4.23694 9.9097 3.95308 9.88174 3.69511 9.77489C3.43715 9.66803 3.21666 9.48709 3.06153 9.25492C2.90641 9.02276 2.82361 8.74981 2.82361 8.47059V4.94117C2.82361 4.19233 3.12109 3.47415 3.6506 2.94464C4.18012 2.41512 4.89829 2.11765 5.64714 2.11765" stroke="#1B2020" stroke-width="2.82353" stroke-linecap="round" stroke-linejoin="round"/>
</g>
<defs>
<clipPath id="clip0_9_2">
<rect width="31.0588" height="24" fill="white"/>
</clipPath>
</defs>
</svg>
