<svg fill="none" height="25" viewBox="0 0 25 25" width="25" xmlns="http://www.w3.org/2000/svg" xmlns:xlink="http://www.w3.org/1999/xlink"><clipPath id="a"><path d="m0 0h25v25h-25z"/></clipPath><g clip-path="url(#a)"><path d="m21.2986 21.3042h-3.7014v-5.8014c0-1.3834-.0278-3.1639-1.9305-3.1639-1.9292 0-2.2236 1.5055-2.2236 3.0625v5.9028h-3.70282v-11.9292h3.55552v1.625h.0486c.4973-.9361 1.7056-1.92639 3.5112-1.92639 3.75 0 4.4444 2.46949 4.4444 5.68199v6.5486zm-15.73888-13.56115c-.28256.00037-.56242-.05504-.82352-.16304-.26111-.10801-.49833-.26648-.69807-.46635-.19973-.19987-.35806-.43719-.46589-.69837-.10784-.26117-.16307-.54106-.16252-.82362.00028-.42523.12664-.84083.36311-1.19424.23648-.35342.57244-.62877.96541-.79125.39296-.16247.82528-.20477 1.24229-.12154.417.08323.79996.28824 1.10045.58912s.50501.6841.5877 1.10121c.08269.41712.03983.84938-.12315 1.24214-.16298.39275-.43877.72836-.79249.96438-.35372.23601-.76809.36184-1.19332.36156zm1.85556 13.56115h-3.7125v-11.9292h3.71389v11.9292zm15.73752-21.3042h-21.30697c-1.022219 0-1.84583.805555-1.84583 1.80139v21.39721c0 .9958.825 1.8014 1.84444 1.8014h21.30276c1.0195 0 1.8528-.8056 1.8528-1.8014v-21.39721c0-.995835-.8333-1.80139-1.8528-1.80139z" fill="#1b2020"/></g></svg>