<svg fill="none" height="25" viewBox="0 0 24 25" width="24" xmlns="http://www.w3.org/2000/svg" xmlns:xlink="http://www.w3.org/1999/xlink"><clipPath id="a"><path d="m0 0h23.3195v25h-23.3195z"/></clipPath><g clip-path="url(#a)"><path d="m22.8231 14.9872c-.3428 1.7636-3.0702 3.6936-6.2026 4.0676-1.6334.1949-3.2416.3741-4.9565.2954-2.80461-.1285-5.01761-.6694-5.01761-.6694 0 .273.01684.533.05051.7761.36461 2.7678 2.7445 2.9336 4.9988 3.0109 2.2754.0779 4.3015-.561 4.3015-.561l.0934 2.057s-1.5915.8547-4.4266 1.0118c-1.5634.086-3.50461-.0393-5.76556-.6377-4.903617-1.2979-5.746928-6.5249-5.875963-11.8286-.0393303-1.5747-.01508561-3.05954-.01508561-4.3014 0-5.42326 3.55332861-7.01291 3.55332861-7.01291 1.79168-.822834 4.86604-1.1688596 8.06218-1.19499h.0785c3.1961.0261304 6.2725.372156 8.0641 1.19499 0 0 3.5531 1.58965 3.5531 7.01291 0 0 .0446 4.0013-.4955 6.7793z" fill="#1b2020"/><path d="m19.1274 8.6286v6.5667h-2.6016v-6.37368c0-1.34356-.5653-2.02551-1.696-2.02551-1.2503 0-1.8768.80896-1.8768 2.40857v3.48872h-2.5863v-3.48872c0-1.59961-.62671-2.40857-1.87692-2.40857-1.13075 0-1.69605.68195-1.69605 2.02551v6.37368h-2.60159v-6.5667c0-1.34207.34171-2.40857 1.02811-3.1976.70781-.78903 1.63476-1.19351 2.78544-1.19351 1.3313 0 2.33951.5117 3.00611 1.53522l.648 1.0863.6481-1.0863c.6665-1.02352 1.6746-1.53522 3.0061-1.53522 1.1505 0 2.0775.40448 2.7854 1.19351.6863.78903 1.028 1.85553 1.028 3.1976z" fill="#fff"/></g></svg>