<svg fill="none" height="25" viewBox="0 0 31 25" width="31" xmlns="http://www.w3.org/2000/svg" xmlns:xlink="http://www.w3.org/1999/xlink"><clipPath id="a"><path d="m0 0h30.5556v25h-30.5556z"/></clipPath><g clip-path="url(#a)"><path d="m29.3916 3.68887c-1.0603.46902-2.1847.77704-3.3361.91389 1.2136-.72579 2.1218-1.86804 2.5556-3.21389-1.1389.67778-2.3875 1.15278-3.6889 1.40972-.8742-.93531-2.0328-1.55561-3.2959-1.76447-1.2631-.208854-2.5598.00543-3.6885.60954-1.1287.60412-2.0262 1.56421-2.553 2.73103-.5267 1.16682-.6532 2.47498-.3598 3.72112-2.3096-.11575-4.569-.71594-6.63158-1.76157-2.06256-1.04564-3.88217-2.51336-5.34068-4.30787-.51626.88674-.78756 1.89476-.78611 2.92083 0 2.01389 1.025 3.79306 2.58333 4.83472-.92221-.02903-1.82412-.27808-2.63055-.72638v.07222c.00028 1.34124.4644 2.64114 1.31368 3.67924.84927 1.0381 2.03143 1.7506 3.34604 2.0166-.85609.232-1.75374.2662-2.625.1.37065 1.1545 1.09307 2.1642 2.0661 2.8876.97304.7235 2.14797 1.1246 3.36029 1.1471-1.20489.9463-2.58448 1.6458-4.05989 2.0586-1.47541.4127-3.01771.5307-4.53872.347 2.65513 1.7075 5.74597 2.614 8.90278 2.6111 10.68471 0 16.52781-8.8514 16.52781-16.5278 0-.25-.007-.50278-.0181-.75 1.1373-.82199 2.1189-1.84025 2.8986-3.00694z" fill="#1b2020"/></g></svg>