<svg width="1200" height="620" fill="none" xmlns="http://www.w3.org/2000/svg"><path fill="#F6D4D1" d="M0 0H1200V620H0z"/><path fill-rule="evenodd" clip-rule="evenodd" d="M751.872 92.181c0-4.297 3.837-7.58 8.083-6.915l235.004 36.797a7.003 7.003 0 0 1 5.921 6.915v326.617c0 4.298-3.841 7.58-8.087 6.915l-235.004-36.797a7 7 0 0 1-5.917-6.915V92.181z" fill="#89C064" stroke="#323537" stroke-width="5" stroke-linecap="round" stroke-linejoin="round"/><path d="M490 477.768s47.029 61.748 131.29 33.324c84.261-28.423 82.301-113.694 192.036-182.303 109.735-68.608 264.394-15.681 277.274-76.449 12.89-60.768-67.6-60.768-67.6-60.768" stroke="#808183" stroke-width="5" stroke-linecap="round" stroke-dasharray="10 10"/><path fill-rule="evenodd" clip-rule="evenodd" d="M566.462 144.132c0-4.298 3.837-7.581 8.083-6.916l235.004 36.797a7 7 0 0 1 5.918 6.916v274.666c0 4.297-3.837 7.58-8.083 6.915L572.38 425.713a7 7 0 0 1-5.918-6.915V144.132z" fill="#fff" stroke="#323537" stroke-width="5" stroke-linecap="round" stroke-linejoin="round"/><path fill-rule="evenodd" clip-rule="evenodd" d="M592.438 179.969c0-4.301 3.842-7.584 8.091-6.914l71.091 11.217a7 7 0 0 1 5.909 6.914v68.241c0 4.301-3.842 7.585-8.091 6.915l-71.091-11.217a7 7 0 0 1-5.909-6.915v-68.241zm111.066 17.914c0-4.301 3.843-7.584 8.091-6.914l71.092 11.217a7 7 0 0 1 5.909 6.914v68.241c0 4.301-3.843 7.585-8.091 6.915l-71.092-11.217a7.001 7.001 0 0 1-5.909-6.915v-68.241z" fill="#fff" stroke="#323537" stroke-width="5" stroke-linecap="round" stroke-linejoin="round"/><path d="M592.438 312.867l180.035 27.751m-180.034 0l128.979 20.137m-128.98-76.119L753.216 309.7m-152.717 60.923l166.6 25.528M600.5 398.374l128.98 20.138" stroke="#323537" stroke-width="5" stroke-linecap="round" stroke-linejoin="round"/><path d="M662 108.848s-19.587-12.276-47.989-12.276c-105.282 0-181.673 83.97-234.068 83.97-52.396 0-223.296-56.962-262.471 32.41-39.174 89.371 55.824 130.62 55.824 130.62" stroke="#808183" stroke-width="5" stroke-linecap="round" stroke-dasharray="10 10"/><path fill-rule="evenodd" clip-rule="evenodd" d="M385 141.577c0-4.237 3.734-7.503 7.933-6.938l234 31.482a7.001 7.001 0 0 1 6.067 6.938v277.508c0 4.237-3.734 7.503-7.933 6.938l-234-31.483a7 7 0 0 1-6.067-6.937V141.577z" fill="#309ECB" stroke="#323537" stroke-width="5" stroke-linecap="round" stroke-linejoin="round"/><path fill-rule="evenodd" clip-rule="evenodd" d="M205.496 144.132c0-4.298 3.837-7.581 8.083-6.916l235.004 36.797a7 7 0 0 1 5.917 6.916v326.616c0 4.298-3.837 7.581-8.083 6.916l-235.004-36.797a7 7 0 0 1-5.917-6.916V144.132z" fill="#fff" stroke="#323537" stroke-width="5" stroke-linecap="round" stroke-linejoin="round"/><path fill-rule="evenodd" clip-rule="evenodd" d="M231.471 179.969c0-4.301 3.843-7.584 8.091-6.914l71.092 11.217a7 7 0 0 1 5.909 6.914v68.241c0 4.301-3.843 7.585-8.091 6.915l-71.092-11.217a7.001 7.001 0 0 1-5.909-6.915v-68.241zm111.067 17.914c0-4.301 3.843-7.584 8.091-6.914l71.091 11.217a7 7 0 0 1 5.909 6.914v68.241c0 4.301-3.842 7.585-8.091 6.915l-71.091-11.217a7 7 0 0 1-5.909-6.915v-68.241zM231.471 290.14c0-4.301 3.843-7.584 8.091-6.914l71.092 11.217a7 7 0 0 1 5.909 6.914v68.241c0 4.301-3.843 7.585-8.091 6.915l-71.092-11.217a7.001 7.001 0 0 1-5.909-6.915V290.14z" fill="#fff" stroke="#323537" stroke-width="5" stroke-linecap="round" stroke-linejoin="round"/><path d="M232.367 422.605l180.036 27.751m-180.035 0l128.98 20.138m-128.981-76.119l160.778 25.064" stroke="#323537" stroke-width="5" stroke-linecap="round" stroke-linejoin="round"/><path fill-rule="evenodd" clip-rule="evenodd" d="M342.538 308.054c0-4.301 3.843-7.584 8.091-6.914l71.091 11.217a6.998 6.998 0 0 1 5.909 6.914v68.241c0 4.301-3.842 7.585-8.091 6.914l-71.091-11.216a7 7 0 0 1-5.909-6.915v-68.241z" fill="#fff" stroke="#323537" stroke-width="5" stroke-linecap="round" stroke-linejoin="round"/><circle cx="187.359" cy="251.102" r="28.849" fill="#FAFAFA" stroke="#323537" stroke-width="5"/><path d="M204.551 273.484v-4.361a8.722 8.722 0 0 0-8.722-8.723h-17.445a8.72 8.72 0 0 0-8.722 8.723v4.361m17.445-21.806a8.722 8.722 0 0 0 0-17.444 8.722 8.722 0 1 0 0 17.444z" stroke="#323537" stroke-width="5" stroke-linecap="round" stroke-linejoin="round"/><circle cx="561.088" cy="454.819" r="28.849" fill="#FAFAFA" stroke="#323537" stroke-width="5"/><path d="M578.28 477.2v-4.361a8.721 8.721 0 0 0-8.722-8.722h-17.445a8.72 8.72 0 0 0-8.722 8.722v4.361m17.445-21.805a8.722 8.722 0 1 0 0-17.444 8.722 8.722 0 0 0 0 17.444z" stroke="#323537" stroke-width="5" stroke-linecap="round" stroke-linejoin="round"/><circle cx="690.964" cy="143.116" r="28.849" fill="#FAFAFA" stroke="#323537" stroke-width="5"/><path d="M708.156 165.497v-4.361a8.72 8.72 0 0 0-8.722-8.722h-17.445a8.721 8.721 0 0 0-8.722 8.722v4.361m17.445-21.805a8.723 8.723 0 1 0-.002-17.444 8.723 8.723 0 0 0 .002 17.444z" stroke="#323537" stroke-width="5" stroke-linecap="round" stroke-linejoin="round"/><circle cx="1000.47" cy="387.275" r="28.849" fill="#FAFAFA" stroke="#323537" stroke-width="5"/><path d="M1017.67 409.656v-4.361c0-2.313-.92-4.532-2.56-6.167a8.705 8.705 0 0 0-6.17-2.555H991.5a8.72 8.72 0 0 0-8.722 8.722v4.361m17.442-21.805c4.82 0 8.72-3.905 8.72-8.722 0-4.818-3.9-8.723-8.72-8.723-4.814 0-8.72 3.905-8.72 8.723a8.722 8.722 0 0 0 8.72 8.722z" stroke="#323537" stroke-width="5" stroke-linecap="round" stroke-linejoin="round"/><path d="M896.489 81.5a3.501 3.501 0 0 0-3.501 3.438l-1.183 67.215a3.494 3.494 0 0 0 3.235 3.549c4.226.313 22.001 1.558 37.163 1.558 15.108 0 31.269-1.236 35.195-1.556a3.49 3.49 0 0 0 3.205-3.433l.985-67.22a3.501 3.501 0 0 0-3.501-3.551h-71.598z" fill="#E5E5E5" stroke="#323537" stroke-width="5" stroke-linejoin="round"/><path d="M903.209 99.82s6.007-3.195 10.138-3.041c4.504.167 6.16 4.003 10.644 4.46 6.488.662 6.286-2.838 14.091-3.75 5.085-.595 7.154 3.507 12.267 3.75 3.77.179 9.529-2.534 9.529-2.534m-56.669 16.883s4.968-3.75 9.023-3.75c4.08 0 5.775 3.316 9.833 3.75 4.781.512 6.894-3.244 13.787-3.751 6.894-.506 13.382 2.332 13.382 2.332" stroke="#323537" stroke-width="5" stroke-linecap="round"/><path d="M337.573 483.669a3.502 3.502 0 0 0-3.501 3.438l-1.183 67.215a3.496 3.496 0 0 0 3.236 3.549c4.226.312 22 1.558 37.162 1.558 15.108 0 31.269-1.236 35.195-1.556a3.49 3.49 0 0 0 3.205-3.433l.985-67.22a3.5 3.5 0 0 0-3.501-3.551h-71.598z" fill="#E5E5E5" stroke="#323537" stroke-width="5" stroke-linejoin="round"/><path d="M344.293 501.989s6.008-3.195 10.138-3.042c4.504.168 6.161 4.003 10.644 4.461 6.488.662 6.286-2.839 14.092-3.751 5.084-.594 7.153 3.508 12.266 3.751 3.77.179 9.529-2.535 9.529-2.535m-56.669 16.884s4.968-3.751 9.023-3.751c4.081 0 5.776 3.317 9.833 3.751 4.782.512 6.894-3.244 13.787-3.751 6.894-.507 13.382 2.332 13.382 2.332" stroke="#323537" stroke-width="5" stroke-linecap="round"/><path d="M1046.64 216.983l-25.56-25.044 12.75-10.095 12.74-10.094M160.291 313.8l18.565 30.594-14.852 6.623-14.852 6.623" stroke="#808183" stroke-width="5" stroke-linecap="round" stroke-linejoin="round"/></svg>