<?xml version="1.0" encoding="UTF-8"?>
<svg width="18px" height="18px" viewBox="0 0 18 18" version="1.1" xmlns="http://www.w3.org/2000/svg" xmlns:xlink="http://www.w3.org/1999/xlink">
    <!-- Generator: Sketch 43.2 (39069) - http://www.bohemiancoding.com/sketch -->
    <title>linkedin</title>
    <desc>Created with Sketch.</desc>
    <defs></defs>
    <g id="Page-1" stroke="none" stroke-width="1" fill="none" fill-rule="evenodd">
        <g id="linkedin" transform="translate(-3.000000, -3.000000)">
            <polygon id="Shape" points="0 0 24 0 24 24 0 24"></polygon>
            <path d="M18.335,18.339 L15.67,18.339 L15.67,14.162 C15.67,13.166 15.65,11.884 14.28,11.884 C12.891,11.884 12.679,12.968 12.679,14.089 L12.679,18.339 L10.013,18.339 L10.013,9.75 L12.573,9.75 L12.573,10.92 L12.608,10.92 C12.966,10.246 13.836,9.533 15.136,9.533 C17.836,9.533 18.336,11.311 18.336,13.624 L18.336,18.339 L18.335,18.339 Z M7.003,8.575 C6.59210855,8.57553233 6.19790762,8.41247352 5.90745708,8.12183534 C5.61700653,7.83119717 5.45420232,7.43689102 5.455,7.026 C5.45555246,6.17106347 6.14906325,5.4784483 7.00399978,5.47900065 C7.85893631,5.47955299 8.55155158,6.17306368 8.55099935,7.02800021 C8.55044713,7.88293675 7.85693653,8.57555211 7.002,8.575 L7.003,8.575 Z M8.339,18.339 L5.666,18.339 L5.666,9.75 L8.34,9.75 L8.34,18.339 L8.339,18.339 Z M19.67,3 L4.329,3 C3.593,3 3,3.58 3,4.297 L3,19.703 C3,20.42 3.594,21 4.328,21 L19.666,21 C20.4,21 21,20.42 21,19.703 L21,4.297 C21,3.58 20.4,3 19.666,3 L19.669,3 L19.67,3 Z" id="Shape" fill="#F6F6F5" fill-rule="nonzero"></path>
        </g>
    </g>
</svg>