<svg width="1200" height="620" fill="none" xmlns="http://www.w3.org/2000/svg"><path fill="#C1BEE8" d="M0 0H1200V620H0z"/><path stroke="#323537" stroke-width="4.032" stroke-linecap="round" d="M187.962 288.505L379.438 97.028"/><path stroke="#323537" stroke-width="4.032" stroke-linecap="round" d="M173.447 361.075L441.526 92.996"/><path stroke="#323537" stroke-width="4.032" stroke-linecap="round" d="M142 454.61L521.353 75.257"/><path stroke="#323537" stroke-width="4.032" stroke-linecap="round" d="M221.021 432.839L555.22 98.641"/><path stroke="#323537" stroke-width="4.032" stroke-linecap="round" d="M200.863 511.054L621.34 90.578"/><path stroke="#323537" stroke-width="4.032" stroke-linecap="round" d="M288.754 485.251L676.17 97.835"/><path stroke="#323537" stroke-width="4.032" stroke-linecap="round" d="M320.201 510.248L733.421 97.028"/><path stroke="#323537" stroke-width="4.032" stroke-linecap="round" d="M418.574 469.931L804.379 84.127"/><path stroke="#323537" stroke-width="4.032" stroke-linecap="round" d="M419.381 531.213L823.73 126.863"/><path stroke="#323537" stroke-width="4.032" stroke-linecap="round" d="M492.758 524.762L886.625 130.894"/><path stroke="#323537" stroke-width="4.032" stroke-linecap="round" d="M531.462 544.114L957.583 117.993"/><path stroke="#323537" stroke-width="4.032" stroke-linecap="round" d="M613.708 523.956L980.966 156.697"/><path stroke="#323537" stroke-width="4.032" stroke-linecap="round" d="M660.476 540.889L1055.15 146.215"/><path stroke="#323537" stroke-width="4.032" stroke-linecap="round" d="M729.014 530.406L1018.06 241.363"/><path stroke="#323537" stroke-width="4.032" stroke-linecap="round" d="M784.651 536.857L1014.03 307.482"/><path stroke="#323537" stroke-width="4.032" stroke-linecap="round" d="M834.645 552.984L997.899 389.729"/><path stroke="#323537" stroke-width="4.032" stroke-linecap="round" d="M908.827 539.276L1027.73 420.37"/><path stroke="#323537" stroke-width="4.032" stroke-linecap="round" d="M175.06 175.617L282.677 68"/><path stroke="#323537" stroke-width="4.032" stroke-linecap="round" d="M173.447 242.544L338.315 77.676"/><path fill-rule="evenodd" clip-rule="evenodd" d="M369.431 182.148l15.636 55.25-143.075 43.242s-11.718 3.616-18.684-.126c-6.929-3.722-10.934-15.649-10.934-15.649l-28.098-95.758c-2.624-8.679-7.637-25.271-7.637-25.271l21.997-6.648 50.197-14.299c-3.411 21.765 9.163 31.627 26.075 27.282 16.911-4.344 22.675-19.836 9.426-37.177l57.898-17.325 16.345 54.569c19.537-15.198 32.621-9.875 37.584 6.548 4.964 16.423-3.497 27.173-26.73 25.362z" fill="#323537" stroke="#323537" stroke-width="4.032" stroke-linecap="round" stroke-linejoin="round"/><path fill-rule="evenodd" clip-rule="evenodd" d="M734.643 126.459V75.756l136.89-1.305c13.574 2.166 20.361 9.583 20.361 22.253v130.764h-59.669c8.064-21.987 1.613-33.679-16.53-33.679-17.739 0-27.012 12.095-17.739 33.679h-63.313v-65.126c-20.949 9.676-34.657.223-34.657-16.934 0-17.156 11.692-29.431 34.657-18.949z" fill="#FEFEFE" stroke="#323537" stroke-width="4.032" stroke-linecap="round" stroke-linejoin="round"/><path d="M810.724 150.169h-6.46c-.628-2.688-3.458-4.887-4.619-6.336a16.89 16.89 0 0 1-2.038-17.876 16.892 16.892 0 0 1 15.231-9.577 16.898 16.898 0 0 1 16.784 18.815 16.902 16.902 0 0 1-3.599 8.643c-1.162 1.446-3.988 3.645-4.615 6.331h-6.46v-10.56h-4.224v10.56zm10.56 4.224v2.112a4.222 4.222 0 0 1-4.224 4.224h-8.448a4.225 4.225 0 0 1-4.224-4.224v-2.112h16.896z" fill="#323537"/><path fill-rule="evenodd" clip-rule="evenodd" d="M867.048 357.054l17.784-47.483 128.648 46.79c11.96 6.79 15.71 16.117 11.27 27.981-4.45 11.864-19.73 52.684-45.867 122.457l-55.879-20.928c15.263-17.762 13.323-30.974-3.667-37.337-16.612-6.222-29.538 1.853-28.425 25.318l-59.291-22.206 22.842-60.989c-23.012 1.713-32.534-11.947-26.516-28.013 6.017-16.067 21.272-23.461 39.101-5.59zm-354.536-57.372h-70.847l-1.32-142.721c2.19-14.152 9.69-21.229 22.501-21.229h151.055v64.507c-23.174-10.079-38.494 0-38.494 18.546s15.32 26.609 38.494 18.546v62.351h-67.523c13.305 21.508.012 36.425-17.336 36.425s-29.431-14.917-16.53-36.425z" fill="#323537" stroke="#323537" stroke-width="4.032" stroke-linecap="round" stroke-linejoin="round"/><path fill-rule="evenodd" clip-rule="evenodd" d="M504.449 291.619h-70.848l-1.319-142.721c2.19-14.153 9.69-21.229 22.501-21.229h151.055v64.507c-23.174-10.079-38.495 0-38.495 18.546s15.321 26.609 38.495 18.546v62.351h-67.523c13.305 21.508.012 36.425-17.336 36.425s-29.431-14.917-16.53-36.425z" fill="#FEFEFE" stroke="#323537" stroke-width="4.032" stroke-linecap="round" stroke-linejoin="round"/><path d="M502.565 211.642l20.272-20.272 5.416 5.415-3.611 3.61 5.416 5.416-9.026 9.028-5.415-5.416-7.634 7.634a12.774 12.774 0 0 1-3.776 16.186 12.766 12.766 0 0 1-20.282-9.309 12.764 12.764 0 0 1 18.64-12.292zm-2.295 14.931a5.1 5.1 0 0 0 1.178-5.606 5.106 5.106 0 1 0-1.178 5.606z" fill="#323537"/><path fill-rule="evenodd" clip-rule="evenodd" d="M713.291 340.123h65.107l1.305 128.464c-2.166 13.574-9.583 20.361-22.253 20.361H609.864v-59.709c23.196 8.064 32.872.404 32.872-16.529 0-17.74-12.095-24.191-32.872-16.934v-55.653h67.948c-10.886-24.174.18-35.06 17.336-35.06 17.157 0 26.609 11.692 18.143 35.06z" fill="#323537" stroke="#323537" stroke-width="4.032" stroke-linecap="round" stroke-linejoin="round"/><path d="M704.956 412.42l20.272-20.272 5.416 5.415-3.61 3.61 5.415 5.416-9.026 9.028-5.415-5.415-7.634 7.634a12.769 12.769 0 0 1-12.294 18.624 12.766 12.766 0 0 1-8.055-3.691 12.765 12.765 0 0 1 14.931-20.349zm-2.295 14.931a5.12 5.12 0 0 0 1.144-1.657 5.098 5.098 0 0 0-1.081-5.626 5.104 5.104 0 0 0-7.284.063 5.105 5.105 0 0 0 7.221 7.22z" fill="#323537"/><path fill-rule="evenodd" clip-rule="evenodd" d="M705.227 332.06h65.108l1.305 128.463c-2.166 13.574-9.584 20.361-22.253 20.361H601.8v-59.708c23.197 8.063 32.873.403 32.873-16.53 0-17.739-12.095-24.19-32.873-16.933V332.06h67.948c-10.885-24.174.18-35.06 17.337-35.06 17.156 0 26.609 11.692 18.142 35.06z" fill="#FEFEFE" stroke="#323537" stroke-width="4.032" stroke-linecap="round" stroke-linejoin="round"/><path d="M688.496 395.978v-8.87a2.217 2.217 0 0 1 2.217-2.217h28.827a2.217 2.217 0 0 1 2.217 2.217v28.827a2.217 2.217 0 0 1-2.217 2.217h-8.87v8.854a2.23 2.23 0 0 1-2.233 2.233h-28.795a2.217 2.217 0 0 1-1.58-.653 2.233 2.233 0 0 1-.653-1.58l.006-28.795a2.23 2.23 0 0 1 2.233-2.233h8.848zm4.435 0h15.506a2.23 2.23 0 0 1 2.233 2.233v15.506h6.652v-24.391h-24.391v6.652zm-1.102 24.392l12.541-12.544-3.135-3.136-9.406 9.409-4.708-4.706-3.135 3.136 7.843 7.841z" fill="#323537"/><path fill-rule="evenodd" clip-rule="evenodd" d="M457.272 459.243l-13.715 55.758-137.888-31.337s-11.973-2.648-16.179-9.343c-4.185-6.661-1.771-19.009-1.771-19.009l22.902-97.132 5.851-25.743 22.408 5.093 42.842 10.592c-13.723 17.235-7.666 32.023 9.183 36.605 16.849 4.582 29.516-6.037 26.57-27.661l58.894 13.556-12.761 55.517c24.495-3.556 33.238 7.538 29.436 24.267-3.802 16.73-16.471 21.895-35.772 8.837z" fill="#C1BEE8" stroke="#323537" stroke-width="4.032" stroke-linecap="round" stroke-linejoin="round"/><path d="M394.59 419.005l-1.036 4.56-2.28-.518-7.255 31.924a9.352 9.352 0 0 1-11.194 7.048 9.35 9.35 0 0 1-7.048-11.194l7.255-31.923-2.281-.519 1.037-4.56 22.802 5.182zm-15.858 27.57a2.34 2.34 0 0 0-1.036 4.561 2.34 2.34 0 0 0 2.799-1.762 2.34 2.34 0 0 0-1.763-2.799zm-3.005-7.877a2.34 2.34 0 1 0-1.036 4.563 2.34 2.34 0 0 0 1.036-4.563zm10.986-16.687l-9.121-2.073-2.073 9.121 9.121 2.073 2.073-9.121z" fill="#323537"/></svg>